<?xml version='1.0' encoding='UTF-8'?>
<!DOCTYPE svg PUBLIC "-//W3C//DTD SVG 1.0//EN" "http://www.w3.org/TR/2001/REC-SVG-20010904/DTD/svg10.dtd">
<svg viewBox="0 0 662 280" xmlns="http://www.w3.org/2000/svg" xmlns:inkspace="http://www.inkscape.org/namespaces/inkscape" xmlns:xlink="http://www.w3.org/1999/xlink">
  <defs id="defs_block">
    <filter height="1.504" id="filter_blur" inkspace:collect="always" width="1.1575" x="-0.07875" y="-0.252">
      <feGaussianBlur id="feGaussianBlur3780" inkspace:collect="always" stdDeviation="4.2" />
    </filter>
  </defs>
  <title>blockdiag</title>
  <desc>blockdiag {
    A -&gt; IN -&gt; B -&gt; OUT -&gt; C
    
    default_fontsize = 24
    default_node_color = "orange"
    default_group_color = "lightgray"
    
    IN[label="Para x en ...", shape="flowchart.loopin", fontsize=20, width=150]    
    OUT[label="", shape="flowchart.loopout", width=150]
    group { orientation=portrait; IN; B; OUT; }
}</desc>
  <rect fill="rgb(211,211,211)" height="220" style="filter:url(#filter_blur)" width="166" x="248" y="30" />
  <rect fill="rgb(0,0,0)" height="40" stroke="rgb(0,0,0)" style="filter:url(#filter_blur);opacity:0.7;fill-opacity:1" width="128" x="67" y="46" />
  <polygon fill="rgb(0,0,0)" points="291,46 377,46 409,56 409,86 259,86 259,56 291,46" stroke="rgb(0,0,0)" style="filter:url(#filter_blur);opacity:0.7;fill-opacity:1" />
  <rect fill="rgb(0,0,0)" height="40" stroke="rgb(0,0,0)" style="filter:url(#filter_blur);opacity:0.7;fill-opacity:1" width="128" x="270" y="126" />
  <polygon fill="rgb(0,0,0)" points="259,206 409,206 409,236 377,246 291,246 259,236 259,206" stroke="rgb(0,0,0)" style="filter:url(#filter_blur);opacity:0.7;fill-opacity:1" />
  <rect fill="rgb(0,0,0)" height="40" stroke="rgb(0,0,0)" style="filter:url(#filter_blur);opacity:0.7;fill-opacity:1" width="128" x="473" y="206" />
  <rect fill="rgb(255,165,0)" height="40" stroke="rgb(0,0,0)" width="128" x="64" y="40" />
  <text fill="rgb(0,0,0)" font-family="sans-serif" font-size="24" font-style="normal" font-weight="normal" text-anchor="middle" textLength="12" x="128.0" y="71">A</text>
  <polygon fill="rgb(255,165,0)" points="288,40 374,40 406,50 406,80 256,80 256,50 288,40" stroke="rgb(0,0,0)" />
  <text fill="rgb(0,0,0)" font-family="sans-serif" font-size="20" font-style="normal" font-weight="normal" text-anchor="middle" textLength="130" x="331.0" y="74">Para x en ...</text>
  <rect fill="rgb(255,165,0)" height="40" stroke="rgb(0,0,0)" width="128" x="267" y="120" />
  <text fill="rgb(0,0,0)" font-family="sans-serif" font-size="24" font-style="normal" font-weight="normal" text-anchor="middle" textLength="12" x="331.0" y="151">B</text>
  <polygon fill="rgb(255,165,0)" points="256,200 406,200 406,230 374,240 288,240 256,230 256,200" stroke="rgb(0,0,0)" />
  <rect fill="rgb(255,165,0)" height="40" stroke="rgb(0,0,0)" width="128" x="470" y="200" />
  <text fill="rgb(0,0,0)" font-family="sans-serif" font-size="24" font-style="normal" font-weight="normal" text-anchor="middle" textLength="12" x="534.0" y="231">C</text>
  <path d="M 192 60 L 248 60" fill="none" stroke="rgb(0,0,0)" />
  <polygon fill="rgb(0,0,0)" points="255,60 248,56 248,64 255,60" stroke="rgb(0,0,0)" />
  <path d="M 331 80 L 331 112" fill="none" stroke="rgb(0,0,0)" />
  <polygon fill="rgb(0,0,0)" points="331,119 327,112 335,112 331,119" stroke="rgb(0,0,0)" />
  <path d="M 331 160 L 331 192" fill="none" stroke="rgb(0,0,0)" />
  <polygon fill="rgb(0,0,0)" points="331,199 327,192 335,192 331,199" stroke="rgb(0,0,0)" />
  <path d="M 406 220 L 462 220" fill="none" stroke="rgb(0,0,0)" />
  <polygon fill="rgb(0,0,0)" points="469,220 462,216 462,224 469,220" stroke="rgb(0,0,0)" />
</svg>
