<?xml version='1.0' encoding='UTF-8'?>
<!DOCTYPE svg PUBLIC "-//W3C//DTD SVG 1.0//EN" "http://www.w3.org/TR/2001/REC-SVG-20010904/DTD/svg10.dtd">
<svg viewBox="0 0 832 360" xmlns="http://www.w3.org/2000/svg" xmlns:inkspace="http://www.inkscape.org/namespaces/inkscape" xmlns:xlink="http://www.w3.org/1999/xlink">
  <defs id="defs_block">
    <filter height="1.504" id="filter_blur" inkspace:collect="always" width="1.1575" x="-0.07875" y="-0.252">
      <feGaussianBlur id="feGaussianBlur3780" inkspace:collect="always" stdDeviation="4.2" />
    </filter>
  </defs>
  <title>blockdiag</title>
  <desc>blockdiag {
    A -&gt; IF1,IF2,IF3,B
    IF1 -&gt; B1
    IF2 -&gt; B2
    IF3 -&gt; B3
    B1,B2,B3,B -&gt; C
    
    default_fontsize = 24
    default_node_color = "orange"
    
    IF1,IF2,IF3[shape="flowchart.condition", fontsize=20]
    IF1[label="cond1"]
    IF2[label="cond2"]
    IF3,B3[shape="dots"]
    
    A -&gt; IF2,IF3,B [style=none]
    IF1 -&gt; B1
    IF2 -&gt; B2
    IF3 -&gt; B3 [style=none]
    IF1 -&gt; IF2 [folded]
    IF2 -&gt; IF3 [folded]
    IF3 -&gt; B [label="else", folded]
}</desc>
  <rect fill="rgb(0,0,0)" height="40" stroke="rgb(0,0,0)" style="filter:url(#filter_blur);opacity:0.7;fill-opacity:1" width="128" x="67" y="46" />
  <polygon fill="rgb(0,0,0)" points="323,38 395,66 323,94 251,66 323,38" stroke="rgb(0,0,0)" style="filter:url(#filter_blur);opacity:0.7;fill-opacity:1" />
  <polygon fill="rgb(0,0,0)" points="323,118 395,146 323,174 251,146 323,118" stroke="rgb(0,0,0)" style="filter:url(#filter_blur);opacity:0.7;fill-opacity:1" />
  <rect fill="rgb(0,0,0)" height="40" stroke="rgb(0,0,0)" style="filter:url(#filter_blur);opacity:0.7;fill-opacity:1" width="128" x="259" y="286" />
  <rect fill="rgb(0,0,0)" height="40" stroke="rgb(0,0,0)" style="filter:url(#filter_blur);opacity:0.7;fill-opacity:1" width="128" x="451" y="46" />
  <rect fill="rgb(0,0,0)" height="40" stroke="rgb(0,0,0)" style="filter:url(#filter_blur);opacity:0.7;fill-opacity:1" width="128" x="451" y="126" />
  <rect fill="rgb(0,0,0)" height="40" stroke="rgb(0,0,0)" style="filter:url(#filter_blur);opacity:0.7;fill-opacity:1" width="128" x="643" y="46" />
  <rect fill="rgb(255,165,0)" height="40" stroke="rgb(0,0,0)" width="128" x="64" y="40" />
  <text fill="rgb(0,0,0)" font-family="sans-serif" font-size="24" font-style="normal" font-weight="normal" text-anchor="middle" textLength="12" x="128.0" y="71">A</text>
  <polygon fill="rgb(255,165,0)" points="320,32 392,60 320,88 248,60 320,32" stroke="rgb(0,0,0)" />
  <text fill="rgb(0,0,0)" font-family="sans-serif" font-size="20" font-style="normal" font-weight="normal" text-anchor="middle" textLength="50" x="320.0" y="69">cond1</text>
  <polygon fill="rgb(255,165,0)" points="320,112 392,140 320,168 248,140 320,112" stroke="rgb(0,0,0)" />
  <text fill="rgb(0,0,0)" font-family="sans-serif" font-size="20" font-style="normal" font-weight="normal" text-anchor="middle" textLength="50" x="320.0" y="149">cond2</text>
  <ellipse cx="320.0" cy="220.0" fill="rgb(0,0,0)" rx="4.0" ry="4.0" stroke="rgb(0,0,0)" />
  <ellipse cx="320.0" cy="200.0" fill="rgb(0,0,0)" rx="4.0" ry="4.0" stroke="rgb(0,0,0)" />
  <ellipse cx="320.0" cy="240.0" fill="rgb(0,0,0)" rx="4.0" ry="4.0" stroke="rgb(0,0,0)" />
  <rect fill="rgb(255,165,0)" height="40" stroke="rgb(0,0,0)" width="128" x="256" y="280" />
  <text fill="rgb(0,0,0)" font-family="sans-serif" font-size="24" font-style="normal" font-weight="normal" text-anchor="middle" textLength="12" x="320.0" y="311">B</text>
  <rect fill="rgb(255,165,0)" height="40" stroke="rgb(0,0,0)" width="128" x="448" y="40" />
  <text fill="rgb(0,0,0)" font-family="sans-serif" font-size="24" font-style="normal" font-weight="normal" text-anchor="middle" textLength="24" x="512.0" y="71">B1</text>
  <rect fill="rgb(255,165,0)" height="40" stroke="rgb(0,0,0)" width="128" x="448" y="120" />
  <text fill="rgb(0,0,0)" font-family="sans-serif" font-size="24" font-style="normal" font-weight="normal" text-anchor="middle" textLength="24" x="512.0" y="151">B2</text>
  <ellipse cx="512.0" cy="220.0" fill="rgb(0,0,0)" rx="4.0" ry="4.0" stroke="rgb(0,0,0)" />
  <ellipse cx="512.0" cy="200.0" fill="rgb(0,0,0)" rx="4.0" ry="4.0" stroke="rgb(0,0,0)" />
  <ellipse cx="512.0" cy="240.0" fill="rgb(0,0,0)" rx="4.0" ry="4.0" stroke="rgb(0,0,0)" />
  <rect fill="rgb(255,165,0)" height="40" stroke="rgb(0,0,0)" width="128" x="640" y="40" />
  <text fill="rgb(0,0,0)" font-family="sans-serif" font-size="24" font-style="normal" font-weight="normal" text-anchor="middle" textLength="12" x="704.0" y="71">C</text>
  <path d="M 192 60 L 240 60" fill="none" stroke="rgb(0,0,0)" />
  <polygon fill="rgb(0,0,0)" points="247,60 240,56 240,64 247,60" stroke="rgb(0,0,0)" />
  <path d="M 392 60 L 440 60" fill="none" stroke="rgb(0,0,0)" />
  <polygon fill="rgb(0,0,0)" points="447,60 440,56 440,64 447,60" stroke="rgb(0,0,0)" />
  <path d="M 320 88 L 320 104" fill="none" stroke="rgb(0,0,0)" />
  <polygon fill="rgb(0,0,0)" points="320,111 316,104 324,104 320,111" stroke="rgb(0,0,0)" />
  <path d="M 392 140 L 440 140" fill="none" stroke="rgb(0,0,0)" />
  <polygon fill="rgb(0,0,0)" points="447,140 440,136 440,144 447,140" stroke="rgb(0,0,0)" />
  <path d="M 320 168 L 320 192" fill="none" stroke="rgb(0,0,0)" />
  <polygon fill="rgb(0,0,0)" points="320,199 316,192 324,192 320,199" stroke="rgb(0,0,0)" />
  <path d="M 320 240 L 320 272" fill="none" stroke="rgb(0,0,0)" />
  <polygon fill="rgb(0,0,0)" points="320,279 316,272 324,272 320,279" stroke="rgb(0,0,0)" />
  <path d="M 384 300 L 624 300" fill="none" stroke="rgb(0,0,0)" />
  <path d="M 624 300 L 624 60" fill="none" stroke="rgb(0,0,0)" />
  <path d="M 624 60 L 632 60" fill="none" stroke="rgb(0,0,0)" />
  <polygon fill="rgb(0,0,0)" points="639,60 632,56 632,64 639,60" stroke="rgb(0,0,0)" />
  <path d="M 576 60 L 632 60" fill="none" stroke="rgb(0,0,0)" />
  <polygon fill="rgb(0,0,0)" points="639,60 632,56 632,64 639,60" stroke="rgb(0,0,0)" />
  <path d="M 576 140 L 624 140" fill="none" stroke="rgb(0,0,0)" />
  <path d="M 624 140 L 624 60" fill="none" stroke="rgb(0,0,0)" />
  <path d="M 624 60 L 632 60" fill="none" stroke="rgb(0,0,0)" />
  <polygon fill="rgb(0,0,0)" points="639,60 632,56 632,64 639,60" stroke="rgb(0,0,0)" />
  <path d="M 576 220 L 624 220" fill="none" stroke="rgb(0,0,0)" />
  <path d="M 624 220 L 624 60" fill="none" stroke="rgb(0,0,0)" />
  <path d="M 624 60 L 632 60" fill="none" stroke="rgb(0,0,0)" />
  <polygon fill="rgb(0,0,0)" points="639,60 632,56 632,64 639,60" stroke="rgb(0,0,0)" />
  <rect fill="white" height="0" stroke="rgb(0,0,0)" width="0" x="344" y="240" />
  <rect fill="white" height="21" stroke="rgb(0,0,0)" width="56" x="340" y="240" />
  <text fill="rgb(0,0,0)" font-family="sans-serif" font-size="19" font-style="normal" font-weight="normal" text-anchor="middle" textLength="40" x="368.0" y="259">else</text>
</svg>
