<?xml version='1.0' encoding='UTF-8'?>
<!DOCTYPE svg PUBLIC "-//W3C//DTD SVG 1.0//EN" "http://www.w3.org/TR/2001/REC-SVG-20010904/DTD/svg10.dtd">
<svg viewBox="0 0 692 320" xmlns="http://www.w3.org/2000/svg" xmlns:inkspace="http://www.inkscape.org/namespaces/inkscape" xmlns:xlink="http://www.w3.org/1999/xlink">
  <defs id="defs_block">
    <filter height="1.504" id="filter_blur" inkspace:collect="always" width="1.1575" x="-0.07875" y="-0.252">
      <feGaussianBlur id="feGaussianBlur3780" inkspace:collect="always" stdDeviation="4.2" />
    </filter>
  </defs>
  <title>blockdiag</title>
  <desc>blockdiag {
    A -&gt; IF,B -&gt; C
    
    default_fontsize = 24
    span_height = 80
    default_node_color = "orange"
    
    IF[label="Condición", shape="flowchart.condition", width=180, fontsize=18]    
    IF -&gt; B [folded,label="True",fontsize=14]
    IF -&gt; C [label="False",fontsize=14]
    A -&gt; B [style=none]
}</desc>
  <rect fill="rgb(0,0,0)" height="40" stroke="rgb(0,0,0)" style="filter:url(#filter_blur);opacity:0.7;fill-opacity:1" width="128" x="67" y="86" />
  <polygon fill="rgb(0,0,0)" points="349,78 447,106 349,134 251,106 349,78" stroke="rgb(0,0,0)" style="filter:url(#filter_blur);opacity:0.7;fill-opacity:1" />
  <rect fill="rgb(0,0,0)" height="40" stroke="rgb(0,0,0)" style="filter:url(#filter_blur);opacity:0.7;fill-opacity:1" width="128" x="285" y="206" />
  <rect fill="rgb(0,0,0)" height="40" stroke="rgb(0,0,0)" style="filter:url(#filter_blur);opacity:0.7;fill-opacity:1" width="128" x="503" y="86" />
  <rect fill="rgb(255,165,0)" height="40" stroke="rgb(0,0,0)" width="128" x="64" y="80" />
  <text fill="rgb(0,0,0)" font-family="sans-serif" font-size="24" font-style="normal" font-weight="normal" text-anchor="middle" textLength="12" x="128.0" y="111">A</text>
  <polygon fill="rgb(255,165,0)" points="346,72 444,100 346,128 248,100 346,72" stroke="rgb(0,0,0)" />
  <text fill="rgb(0,0,0)" font-family="sans-serif" font-size="18" font-style="normal" font-weight="normal" text-anchor="middle" textLength="81" x="346.5" y="108">Condición</text>
  <rect fill="rgb(255,165,0)" height="40" stroke="rgb(0,0,0)" width="128" x="282" y="200" />
  <text fill="rgb(0,0,0)" font-family="sans-serif" font-size="24" font-style="normal" font-weight="normal" text-anchor="middle" textLength="12" x="346.0" y="231">B</text>
  <rect fill="rgb(255,165,0)" height="40" stroke="rgb(0,0,0)" width="128" x="500" y="80" />
  <text fill="rgb(0,0,0)" font-family="sans-serif" font-size="24" font-style="normal" font-weight="normal" text-anchor="middle" textLength="12" x="564.0" y="111">C</text>
  <path d="M 192 100 L 240 100" fill="none" stroke="rgb(0,0,0)" />
  <polygon fill="rgb(0,0,0)" points="247,100 240,96 240,104 247,100" stroke="rgb(0,0,0)" />
  <path d="M 444 100 L 492 100" fill="none" stroke="rgb(0,0,0)" />
  <polygon fill="rgb(0,0,0)" points="499,100 492,96 492,104 499,100" stroke="rgb(0,0,0)" />
  <path d="M 346 128 L 346 192" fill="none" stroke="rgb(0,0,0)" />
  <polygon fill="rgb(0,0,0)" points="346,199 342,192 350,192 346,199" stroke="rgb(0,0,0)" />
  <path d="M 410 220 L 484 220" fill="none" stroke="rgb(0,0,0)" />
  <path d="M 484 220 L 484 100" fill="none" stroke="rgb(0,0,0)" />
  <path d="M 484 100 L 492 100" fill="none" stroke="rgb(0,0,0)" />
  <polygon fill="rgb(0,0,0)" points="499,100 492,96 492,104 499,100" stroke="rgb(0,0,0)" />
  <rect fill="white" height="17" stroke="rgb(0,0,0)" width="51" x="443" y="72" />
  <text fill="rgb(0,0,0)" font-family="sans-serif" font-size="14" font-style="normal" font-weight="normal" text-anchor="middle" textLength="35" x="468.5" y="87">False</text>
  <rect fill="white" height="17" stroke="rgb(0,0,0)" width="44" x="385" y="132" />
  <text fill="rgb(0,0,0)" font-family="sans-serif" font-size="14" font-style="normal" font-weight="normal" text-anchor="middle" textLength="28" x="407.0" y="147">True</text>
</svg>
