<?xml version='1.0' encoding='UTF-8'?>
<!DOCTYPE svg PUBLIC "-//W3C//DTD SVG 1.0//EN" "http://www.w3.org/TR/2001/REC-SVG-20010904/DTD/svg10.dtd">
<svg viewBox="0 0 1414 120" xmlns="http://www.w3.org/2000/svg" xmlns:inkspace="http://www.inkscape.org/namespaces/inkscape" xmlns:xlink="http://www.w3.org/1999/xlink">
  <defs id="defs_block">
    <filter height="1.504" id="filter_blur" inkspace:collect="always" width="1.1575" x="-0.07875" y="-0.252">
      <feGaussianBlur id="feGaussianBlur3780" inkspace:collect="always" stdDeviation="4.2" />
    </filter>
  </defs>
  <title>blockdiag</title>
  <desc>blockdiag {
    G -&gt; min -&gt; A -&gt; B -&gt; C -&gt; conjetura -&gt; D -&gt; E -&gt; F -&gt; max -&gt; H [dir=none, style=dotted]
    
    default_fontsize = 24
    default_node_color = "orange"
    default_group_color = "lightgray"
    
    min,max,conjetura [style=none]
    A,B,C,D,E,F [label="",width=1]
    G,H [shape=none]
}</desc>
  <rect fill="rgb(0,0,0)" height="40" stroke="rgb(0,0,0)" style="filter:url(#filter_blur);opacity:0.7;fill-opacity:1" width="128" x="259" y="46" />
  <rect fill="rgb(0,0,0)" height="40" stroke="rgb(0,0,0)" style="filter:url(#filter_blur);opacity:0.7;fill-opacity:1" width="1" x="451" y="46" />
  <rect fill="rgb(0,0,0)" height="40" stroke="rgb(0,0,0)" style="filter:url(#filter_blur);opacity:0.7;fill-opacity:1" width="1" x="516" y="46" />
  <rect fill="rgb(0,0,0)" height="40" stroke="rgb(0,0,0)" style="filter:url(#filter_blur);opacity:0.7;fill-opacity:1" width="1" x="581" y="46" />
  <rect fill="rgb(0,0,0)" height="40" stroke="rgb(0,0,0)" style="filter:url(#filter_blur);opacity:0.7;fill-opacity:1" width="128" x="646" y="46" />
  <rect fill="rgb(0,0,0)" height="40" stroke="rgb(0,0,0)" style="filter:url(#filter_blur);opacity:0.7;fill-opacity:1" width="1" x="838" y="46" />
  <rect fill="rgb(0,0,0)" height="40" stroke="rgb(0,0,0)" style="filter:url(#filter_blur);opacity:0.7;fill-opacity:1" width="1" x="903" y="46" />
  <rect fill="rgb(0,0,0)" height="40" stroke="rgb(0,0,0)" style="filter:url(#filter_blur);opacity:0.7;fill-opacity:1" width="1" x="968" y="46" />
  <rect fill="rgb(0,0,0)" height="40" stroke="rgb(0,0,0)" style="filter:url(#filter_blur);opacity:0.7;fill-opacity:1" width="128" x="1033" y="46" />
  <rect fill="rgb(255,165,0)" height="40" stroke="rgb(0,0,0)" stroke-dasharray="0 65535" width="128" x="256" y="40" />
  <text fill="rgb(0,0,0)" font-family="sans-serif" font-size="24" font-style="normal" font-weight="normal" text-anchor="middle" textLength="36" x="320.0" y="71">min</text>
  <rect fill="rgb(255,165,0)" height="40" stroke="rgb(0,0,0)" width="1" x="448" y="40" />
  <rect fill="rgb(255,165,0)" height="40" stroke="rgb(0,0,0)" width="1" x="513" y="40" />
  <rect fill="rgb(255,165,0)" height="40" stroke="rgb(0,0,0)" width="1" x="578" y="40" />
  <rect fill="rgb(255,165,0)" height="40" stroke="rgb(0,0,0)" stroke-dasharray="0 65535" width="128" x="643" y="40" />
  <text fill="rgb(0,0,0)" font-family="sans-serif" font-size="24" font-style="normal" font-weight="normal" text-anchor="middle" textLength="108" x="707.0" y="72">conjetura</text>
  <rect fill="rgb(255,165,0)" height="40" stroke="rgb(0,0,0)" width="1" x="835" y="40" />
  <rect fill="rgb(255,165,0)" height="40" stroke="rgb(0,0,0)" width="1" x="900" y="40" />
  <rect fill="rgb(255,165,0)" height="40" stroke="rgb(0,0,0)" width="1" x="965" y="40" />
  <rect fill="rgb(255,165,0)" height="40" stroke="rgb(0,0,0)" stroke-dasharray="0 65535" width="128" x="1030" y="40" />
  <text fill="rgb(0,0,0)" font-family="sans-serif" font-size="24" font-style="normal" font-weight="normal" text-anchor="middle" textLength="36" x="1094.0" y="71">max</text>
  <path d="M 128 60 L 256 60" fill="none" stroke="rgb(0,0,0)" stroke-dasharray="2" />
  <path d="M 384 60 L 448 60" fill="none" stroke="rgb(0,0,0)" stroke-dasharray="2" />
  <path d="M 449 60 L 513 60" fill="none" stroke="rgb(0,0,0)" stroke-dasharray="2" />
  <path d="M 514 60 L 578 60" fill="none" stroke="rgb(0,0,0)" stroke-dasharray="2" />
  <path d="M 579 60 L 643 60" fill="none" stroke="rgb(0,0,0)" stroke-dasharray="2" />
  <path d="M 771 60 L 835 60" fill="none" stroke="rgb(0,0,0)" stroke-dasharray="2" />
  <path d="M 836 60 L 900 60" fill="none" stroke="rgb(0,0,0)" stroke-dasharray="2" />
  <path d="M 901 60 L 965 60" fill="none" stroke="rgb(0,0,0)" stroke-dasharray="2" />
  <path d="M 966 60 L 1030 60" fill="none" stroke="rgb(0,0,0)" stroke-dasharray="2" />
  <path d="M 1158 60 L 1286 60" fill="none" stroke="rgb(0,0,0)" stroke-dasharray="2" />
</svg>
