<?xml version='1.0' encoding='UTF-8'?>
<!DOCTYPE svg PUBLIC "-//W3C//DTD SVG 1.0//EN" "http://www.w3.org/TR/2001/REC-SVG-20010904/DTD/svg10.dtd">
<svg viewBox="0 0 884 200" xmlns="http://www.w3.org/2000/svg" xmlns:inkspace="http://www.inkscape.org/namespaces/inkscape" xmlns:xlink="http://www.w3.org/1999/xlink">
  <defs id="defs_block">
    <filter height="1.504" id="filter_blur" inkspace:collect="always" width="1.1575" x="-0.07875" y="-0.252">
      <feGaussianBlur id="feGaussianBlur3780" inkspace:collect="always" stdDeviation="4.2" />
    </filter>
  </defs>
  <title>blockdiag</title>
  <desc>blockdiag {
    A -&gt; IF -&gt; B1,B2 -&gt; C
    
    default_fontsize = 24
    default_node_color = "orange"
    
    IF[label="Condición", shape="flowchart.condition", width=180, fontsize=20]    
    
    A -&gt; B1,B2 [style=none]
    //IF -&gt; C [style=none]
    IF -&gt; B1,B2 [fontsize=14]
    IF -&gt; B1 [label="True"]
    IF -&gt; B2 [label="False"]
}</desc>
  <rect fill="rgb(0,0,0)" height="40" stroke="rgb(0,0,0)" style="filter:url(#filter_blur);opacity:0.7;fill-opacity:1" width="128" x="67" y="46" />
  <polygon fill="rgb(0,0,0)" points="349,38 447,66 349,94 251,66 349,38" stroke="rgb(0,0,0)" style="filter:url(#filter_blur);opacity:0.7;fill-opacity:1" />
  <rect fill="rgb(0,0,0)" height="40" stroke="rgb(0,0,0)" style="filter:url(#filter_blur);opacity:0.7;fill-opacity:1" width="128" x="503" y="46" />
  <rect fill="rgb(0,0,0)" height="40" stroke="rgb(0,0,0)" style="filter:url(#filter_blur);opacity:0.7;fill-opacity:1" width="128" x="503" y="126" />
  <rect fill="rgb(0,0,0)" height="40" stroke="rgb(0,0,0)" style="filter:url(#filter_blur);opacity:0.7;fill-opacity:1" width="128" x="695" y="46" />
  <rect fill="rgb(255,165,0)" height="40" stroke="rgb(0,0,0)" width="128" x="64" y="40" />
  <text fill="rgb(0,0,0)" font-family="sans-serif" font-size="24" font-style="normal" font-weight="normal" text-anchor="middle" textLength="12" x="128.0" y="71">A</text>
  <polygon fill="rgb(255,165,0)" points="346,32 444,60 346,88 248,60 346,32" stroke="rgb(0,0,0)" />
  <text fill="rgb(0,0,0)" font-family="sans-serif" font-size="20" font-style="normal" font-weight="normal" text-anchor="middle" textLength="90" x="346.0" y="69">Condición</text>
  <rect fill="rgb(255,165,0)" height="40" stroke="rgb(0,0,0)" width="128" x="500" y="40" />
  <text fill="rgb(0,0,0)" font-family="sans-serif" font-size="24" font-style="normal" font-weight="normal" text-anchor="middle" textLength="24" x="564.0" y="71">B1</text>
  <rect fill="rgb(255,165,0)" height="40" stroke="rgb(0,0,0)" width="128" x="500" y="120" />
  <text fill="rgb(0,0,0)" font-family="sans-serif" font-size="24" font-style="normal" font-weight="normal" text-anchor="middle" textLength="24" x="564.0" y="151">B2</text>
  <rect fill="rgb(255,165,0)" height="40" stroke="rgb(0,0,0)" width="128" x="692" y="40" />
  <text fill="rgb(0,0,0)" font-family="sans-serif" font-size="24" font-style="normal" font-weight="normal" text-anchor="middle" textLength="12" x="756.0" y="71">C</text>
  <path d="M 192 60 L 240 60" fill="none" stroke="rgb(0,0,0)" />
  <polygon fill="rgb(0,0,0)" points="247,60 240,56 240,64 247,60" stroke="rgb(0,0,0)" />
  <path d="M 444 60 L 492 60" fill="none" stroke="rgb(0,0,0)" />
  <polygon fill="rgb(0,0,0)" points="499,60 492,56 492,64 499,60" stroke="rgb(0,0,0)" />
  <path d="M 444 60 L 468 60" fill="none" stroke="rgb(0,0,0)" />
  <path d="M 468 60 L 468 140" fill="none" stroke="rgb(0,0,0)" />
  <path d="M 468 140 L 492 140" fill="none" stroke="rgb(0,0,0)" />
  <polygon fill="rgb(0,0,0)" points="499,140 492,136 492,144 499,140" stroke="rgb(0,0,0)" />
  <path d="M 628 60 L 684 60" fill="none" stroke="rgb(0,0,0)" />
  <polygon fill="rgb(0,0,0)" points="691,60 684,56 684,64 691,60" stroke="rgb(0,0,0)" />
  <path d="M 628 140 L 676 140" fill="none" stroke="rgb(0,0,0)" />
  <path d="M 676 140 L 676 60" fill="none" stroke="rgb(0,0,0)" />
  <path d="M 676 60 L 684 60" fill="none" stroke="rgb(0,0,0)" />
  <polygon fill="rgb(0,0,0)" points="691,60 684,56 684,64 691,60" stroke="rgb(0,0,0)" />
  <rect fill="white" height="17" stroke="rgb(0,0,0)" width="44" x="446" y="37" />
  <text fill="rgb(0,0,0)" font-family="sans-serif" font-size="14" font-style="normal" font-weight="normal" text-anchor="middle" textLength="28" x="468.0" y="52">True</text>
  <rect fill="white" height="17" stroke="rgb(0,0,0)" width="51" x="443" y="117" />
  <text fill="rgb(0,0,0)" font-family="sans-serif" font-size="14" font-style="normal" font-weight="normal" text-anchor="middle" textLength="35" x="468.5" y="132">False</text>
</svg>
